<?xml version="1.0" encoding="UTF-8" standalone="no"?>
<!DOCTYPE svg PUBLIC "-//W3C//DTD SVG 1.1//EN"
 "http://www.w3.org/Graphics/SVG/1.1/DTD/svg11.dtd">
<!-- Generated by graphviz version 2.38.0 (20140413.2041)
 -->
<!-- Title: G Pages: 1 -->
<svg width="763pt" height="623pt"
 viewBox="0.00 0.00 762.57 623.39" xmlns="http://www.w3.org/2000/svg" xmlns:xlink="http://www.w3.org/1999/xlink">
<g id="graph0" class="graph" transform="scale(1 1) rotate(0) translate(4 619.387)">
<title>G</title>
<polygon fill="white" stroke="none" points="-4,4 -4,-619.387 758.572,-619.387 758.572,4 -4,4"/>
<!-- Id000001fc143262f0 -->
<g id="node1" class="node"><title>Id000001fc143262f0</title>
<ellipse fill="none" stroke="black" cx="353.175" cy="-597.387" rx="41.6928" ry="18"/>
<text text-anchor="middle" x="353.175" y="-593.687" font-family="Times New Roman,serif" font-size="14.00">program</text>
</g>
<!-- Id000001fc143018f0 -->
<g id="node2" class="node"><title>Id000001fc143018f0</title>
<ellipse fill="none" stroke="black" cx="265.175" cy="-524.387" rx="27" ry="18"/>
<text text-anchor="middle" x="265.175" y="-520.687" font-family="Times New Roman,serif" font-size="14.00">stmt</text>
</g>
<!-- Id000001fc143262f0&#45;&gt;Id000001fc143018f0 -->
<g id="edge6" class="edge"><title>Id000001fc143262f0&#45;&gt;Id000001fc143018f0</title>
<path fill="none" stroke="black" d="M334.08,-580.981C321.065,-570.48 303.716,-556.482 289.682,-545.159"/>
<polygon fill="black" stroke="black" points="291.84,-542.404 281.86,-538.848 287.445,-547.852 291.84,-542.404"/>
</g>
<!-- Id000001fc14301bb0 -->
<g id="node8" class="node"><title>Id000001fc14301bb0</title>
<ellipse fill="none" stroke="black" cx="353.175" cy="-524.387" rx="27" ry="18"/>
<text text-anchor="middle" x="353.175" y="-520.687" font-family="Times New Roman,serif" font-size="14.00">stmt</text>
</g>
<!-- Id000001fc143262f0&#45;&gt;Id000001fc14301bb0 -->
<g id="edge15" class="edge"><title>Id000001fc143262f0&#45;&gt;Id000001fc14301bb0</title>
<path fill="none" stroke="black" d="M353.175,-579.2C353.175,-571.176 353.175,-561.434 353.175,-552.456"/>
<polygon fill="black" stroke="black" points="356.675,-552.416 353.175,-542.416 349.675,-552.416 356.675,-552.416"/>
</g>
<!-- Id000001fc14326270 -->
<g id="node17" class="node"><title>Id000001fc14326270</title>
<ellipse fill="none" stroke="black" cx="446.175" cy="-524.387" rx="27" ry="18"/>
<text text-anchor="middle" x="446.175" y="-520.687" font-family="Times New Roman,serif" font-size="14.00">stmt</text>
</g>
<!-- Id000001fc143262f0&#45;&gt;Id000001fc14326270 -->
<g id="edge23" class="edge"><title>Id000001fc143262f0&#45;&gt;Id000001fc14326270</title>
<path fill="none" stroke="black" d="M372.898,-581.33C386.934,-570.614 405.908,-556.128 421.032,-544.582"/>
<polygon fill="black" stroke="black" points="423.157,-547.363 428.982,-538.513 418.91,-541.799 423.157,-547.363"/>
</g>
<!-- Id000001fc14301860 -->
<g id="node3" class="node"><title>Id000001fc14301860</title>
<ellipse fill="none" stroke="black" cx="217.175" cy="-442.517" rx="27" ry="18"/>
<text text-anchor="middle" x="217.175" y="-438.817" font-family="Times New Roman,serif" font-size="14.00">=</text>
</g>
<!-- Id000001fc143018f0&#45;&gt;Id000001fc14301860 -->
<g id="edge5" class="edge"><title>Id000001fc143018f0&#45;&gt;Id000001fc14301860</title>
<path fill="none" stroke="black" d="M255.462,-507.224C248.716,-496 239.604,-480.837 231.961,-468.12"/>
<polygon fill="black" stroke="black" points="234.861,-466.151 226.71,-459.383 228.862,-469.757 234.861,-466.151"/>
</g>
<!-- Id000001fc14301760 -->
<g id="node4" class="node"><title>Id000001fc14301760</title>
<ellipse fill="none" stroke="black" cx="67.1751" cy="-327.17" rx="67.3507" ry="26.7407"/>
<text text-anchor="middle" x="67.1751" y="-330.97" font-family="Times New Roman,serif" font-size="14.00">var or method</text>
<text text-anchor="middle" x="67.1751" y="-315.97" font-family="Times New Roman,serif" font-size="14.00"> localnum = 1</text>
</g>
<!-- Id000001fc14301860&#45;&gt;Id000001fc14301760 -->
<g id="edge3" class="edge"><title>Id000001fc14301860&#45;&gt;Id000001fc14301760</title>
<path fill="none" stroke="black" d="M199.968,-428.515C177.178,-411.293 136.323,-380.421 105.926,-357.452"/>
<polygon fill="black" stroke="black" points="107.743,-354.438 97.6541,-351.201 103.522,-360.023 107.743,-354.438"/>
</g>
<!-- Id000001fc143017f0 -->
<g id="node6" class="node"><title>Id000001fc143017f0</title>
<ellipse fill="none" stroke="black" cx="217.175" cy="-327.17" rx="64.1938" ry="37.4533"/>
<text text-anchor="middle" x="217.175" y="-338.47" font-family="Times New Roman,serif" font-size="14.00">STRING</text>
<text text-anchor="middle" x="217.175" y="-323.47" font-family="Times New Roman,serif" font-size="14.00"> mref = #17</text>
<text text-anchor="middle" x="217.175" y="-308.47" font-family="Times New Roman,serif" font-size="14.00"> val_id = #11</text>
</g>
<!-- Id000001fc14301860&#45;&gt;Id000001fc143017f0 -->
<g id="edge4" class="edge"><title>Id000001fc14301860&#45;&gt;Id000001fc143017f0</title>
<path fill="none" stroke="black" d="M217.175,-424.302C217.175,-411.152 217.175,-392.376 217.175,-374.902"/>
<polygon fill="black" stroke="black" points="220.675,-374.816 217.175,-364.816 213.675,-374.816 220.675,-374.816"/>
</g>
<!-- IdVal000001fc14301760 -->
<g id="node5" class="node"><title>IdVal000001fc14301760</title>
<ellipse fill="none" stroke="black" cx="67.1751" cy="-225.823" rx="27" ry="18"/>
<text text-anchor="middle" x="67.1751" y="-222.123" font-family="Times New Roman,serif" font-size="14.00">str</text>
</g>
<!-- Id000001fc14301760&#45;&gt;IdVal000001fc14301760 -->
<g id="edge1" class="edge"><title>Id000001fc14301760&#45;&gt;IdVal000001fc14301760</title>
<path fill="none" stroke="black" d="M67.1751,-300.068C67.1751,-285.958 67.1751,-268.544 67.1751,-254.237"/>
<polygon fill="black" stroke="black" points="70.6752,-254.008 67.1751,-244.008 63.6752,-254.008 70.6752,-254.008"/>
</g>
<!-- IdVal000001fc143017f0 -->
<g id="node7" class="node"><title>IdVal000001fc143017f0</title>
<ellipse fill="none" stroke="black" cx="217.175" cy="-225.823" rx="29.795" ry="18"/>
<text text-anchor="middle" x="217.175" y="-222.123" font-family="Times New Roman,serif" font-size="14.00">Hello</text>
</g>
<!-- Id000001fc143017f0&#45;&gt;IdVal000001fc143017f0 -->
<g id="edge2" class="edge"><title>Id000001fc143017f0&#45;&gt;IdVal000001fc143017f0</title>
<path fill="none" stroke="black" d="M217.175,-289.459C217.175,-277.769 217.175,-265.049 217.175,-254.144"/>
<polygon fill="black" stroke="black" points="220.675,-253.95 217.175,-243.95 213.675,-253.95 220.675,-253.95"/>
</g>
<!-- Id000001fc14301b20 -->
<g id="node9" class="node"><title>Id000001fc14301b20</title>
<ellipse fill="none" stroke="black" cx="353.175" cy="-442.517" rx="60.2083" ry="26.7407"/>
<text text-anchor="middle" x="353.175" y="-446.317" font-family="Times New Roman,serif" font-size="14.00">method_call</text>
<text text-anchor="middle" x="353.175" y="-431.317" font-family="Times New Roman,serif" font-size="14.00"> mref = #21</text>
</g>
<!-- Id000001fc14301bb0&#45;&gt;Id000001fc14301b20 -->
<g id="edge14" class="edge"><title>Id000001fc14301bb0&#45;&gt;Id000001fc14301b20</title>
<path fill="none" stroke="black" d="M353.175,-506.056C353.175,-498.323 353.175,-488.903 353.175,-479.745"/>
<polygon fill="black" stroke="black" points="356.675,-479.621 353.175,-469.621 349.675,-479.621 356.675,-479.621"/>
</g>
<!-- IdMethodNameVal000001fc14301b20 -->
<g id="node10" class="node"><title>IdMethodNameVal000001fc14301b20</title>
<ellipse fill="none" stroke="black" cx="333.175" cy="-327.17" rx="33.5952" ry="18"/>
<text text-anchor="middle" x="333.175" y="-323.47" font-family="Times New Roman,serif" font-size="14.00">println</text>
</g>
<!-- Id000001fc14301b20&#45;&gt;IdMethodNameVal000001fc14301b20 -->
<g id="edge7" class="edge"><title>Id000001fc14301b20&#45;&gt;IdMethodNameVal000001fc14301b20</title>
<path fill="none" stroke="black" d="M348.587,-415.513C345.405,-397.483 341.178,-373.527 337.956,-355.264"/>
<polygon fill="black" stroke="black" points="341.375,-354.497 336.19,-345.257 334.481,-355.713 341.375,-354.497"/>
<text text-anchor="middle" x="360.175" y="-386.447" font-family="Times New Roman,serif" font-size="14.00">name</text>
</g>
<!-- Id000001fc14301b00 -->
<g id="node11" class="node"><title>Id000001fc14301b00</title>
<ellipse fill="none" stroke="black" cx="422.175" cy="-327.17" rx="37.0935" ry="18"/>
<text text-anchor="middle" x="422.175" y="-323.47" font-family="Times New Roman,serif" font-size="14.00">params</text>
</g>
<!-- Id000001fc14301b20&#45;&gt;Id000001fc14301b00 -->
<g id="edge8" class="edge"><title>Id000001fc14301b20&#45;&gt;Id000001fc14301b00</title>
<path fill="none" stroke="black" d="M368.488,-416.362C379.884,-397.641 395.376,-372.193 406.789,-353.445"/>
<polygon fill="black" stroke="black" points="409.818,-355.199 412.029,-344.838 403.839,-351.56 409.818,-355.199"/>
</g>
<!-- Id000001fc14301a90 -->
<g id="node12" class="node"><title>Id000001fc14301a90</title>
<ellipse fill="none" stroke="black" cx="422.175" cy="-225.823" rx="58.8803" ry="26.7407"/>
<text text-anchor="middle" x="422.175" y="-229.623" font-family="Times New Roman,serif" font-size="14.00">*</text>
<text text-anchor="middle" x="422.175" y="-214.623" font-family="Times New Roman,serif" font-size="14.00"> mref = #25</text>
</g>
<!-- Id000001fc14301b00&#45;&gt;Id000001fc14301a90 -->
<g id="edge13" class="edge"><title>Id000001fc14301b00&#45;&gt;Id000001fc14301a90</title>
<path fill="none" stroke="black" d="M422.175,-308.865C422.175,-296.308 422.175,-278.863 422.175,-263.287"/>
<polygon fill="black" stroke="black" points="425.675,-262.885 422.175,-252.885 418.675,-262.885 425.675,-262.885"/>
</g>
<!-- Id000001fc143019b0 -->
<g id="node13" class="node"><title>Id000001fc143019b0</title>
<ellipse fill="none" stroke="black" cx="289.175" cy="-110.477" rx="67.3507" ry="26.7407"/>
<text text-anchor="middle" x="289.175" y="-114.277" font-family="Times New Roman,serif" font-size="14.00">var or method</text>
<text text-anchor="middle" x="289.175" y="-99.2767" font-family="Times New Roman,serif" font-size="14.00"> localnum = 1</text>
</g>
<!-- Id000001fc14301a90&#45;&gt;Id000001fc143019b0 -->
<g id="edge11" class="edge"><title>Id000001fc14301a90&#45;&gt;Id000001fc143019b0</title>
<path fill="none" stroke="black" d="M395.261,-201.886C374.98,-184.602 346.976,-160.736 324.833,-141.865"/>
<polygon fill="black" stroke="black" points="326.846,-138.983 316.965,-135.16 322.306,-144.31 326.846,-138.983"/>
</g>
<!-- Id000001fc14301a20 -->
<g id="node15" class="node"><title>Id000001fc14301a20</title>
<ellipse fill="none" stroke="black" cx="439.175" cy="-110.477" rx="64.1938" ry="37.4533"/>
<text text-anchor="middle" x="439.175" y="-121.777" font-family="Times New Roman,serif" font-size="14.00">INT</text>
<text text-anchor="middle" x="439.175" y="-106.777" font-family="Times New Roman,serif" font-size="14.00"> mref = #29</text>
<text text-anchor="middle" x="439.175" y="-91.7767" font-family="Times New Roman,serif" font-size="14.00"> val_id = #26</text>
</g>
<!-- Id000001fc14301a90&#45;&gt;Id000001fc14301a20 -->
<g id="edge12" class="edge"><title>Id000001fc14301a90&#45;&gt;Id000001fc14301a20</title>
<path fill="none" stroke="black" d="M426.075,-198.819C427.89,-186.723 430.104,-171.959 432.192,-158.036"/>
<polygon fill="black" stroke="black" points="435.661,-158.506 433.683,-148.097 428.738,-157.468 435.661,-158.506"/>
</g>
<!-- IdVal000001fc143019b0 -->
<g id="node14" class="node"><title>IdVal000001fc143019b0</title>
<ellipse fill="none" stroke="black" cx="289.175" cy="-18" rx="27" ry="18"/>
<text text-anchor="middle" x="289.175" y="-14.3" font-family="Times New Roman,serif" font-size="14.00">str</text>
</g>
<!-- Id000001fc143019b0&#45;&gt;IdVal000001fc143019b0 -->
<g id="edge9" class="edge"><title>Id000001fc143019b0&#45;&gt;IdVal000001fc143019b0</title>
<path fill="none" stroke="black" d="M289.175,-83.3071C289.175,-71.7193 289.175,-58.0883 289.175,-46.3654"/>
<polygon fill="black" stroke="black" points="292.675,-46.2492 289.175,-36.2493 285.675,-46.2493 292.675,-46.2492"/>
</g>
<!-- IdVal000001fc14301a20 -->
<g id="node16" class="node"><title>IdVal000001fc14301a20</title>
<ellipse fill="none" stroke="black" cx="439.175" cy="-18" rx="27" ry="18"/>
<text text-anchor="middle" x="439.175" y="-14.3" font-family="Times New Roman,serif" font-size="14.00">3</text>
</g>
<!-- Id000001fc14301a20&#45;&gt;IdVal000001fc14301a20 -->
<g id="edge10" class="edge"><title>Id000001fc14301a20&#45;&gt;IdVal000001fc14301a20</title>
<path fill="none" stroke="black" d="M439.175,-72.9371C439.175,-63.9712 439.175,-54.5316 439.175,-46.0996"/>
<polygon fill="black" stroke="black" points="442.675,-46.0694 439.175,-36.0695 435.675,-46.0695 442.675,-46.0694"/>
</g>
<!-- Id000001fc14326200 -->
<g id="node18" class="node"><title>Id000001fc14326200</title>
<ellipse fill="none" stroke="black" cx="511.175" cy="-442.517" rx="60.2083" ry="26.7407"/>
<text text-anchor="middle" x="511.175" y="-446.317" font-family="Times New Roman,serif" font-size="14.00">method_call</text>
<text text-anchor="middle" x="511.175" y="-431.317" font-family="Times New Roman,serif" font-size="14.00"> mref = #21</text>
</g>
<!-- Id000001fc14326270&#45;&gt;Id000001fc14326200 -->
<g id="edge22" class="edge"><title>Id000001fc14326270&#45;&gt;Id000001fc14326200</title>
<path fill="none" stroke="black" d="M458.708,-507.987C466.129,-498.868 475.819,-486.962 484.848,-475.867"/>
<polygon fill="black" stroke="black" points="487.667,-477.948 491.264,-467.982 482.238,-473.529 487.667,-477.948"/>
</g>
<!-- IdMethodNameVal000001fc14326200 -->
<g id="node19" class="node"><title>IdMethodNameVal000001fc14326200</title>
<ellipse fill="none" stroke="black" cx="511.175" cy="-327.17" rx="33.5952" ry="18"/>
<text text-anchor="middle" x="511.175" y="-323.47" font-family="Times New Roman,serif" font-size="14.00">println</text>
</g>
<!-- Id000001fc14326200&#45;&gt;IdMethodNameVal000001fc14326200 -->
<g id="edge16" class="edge"><title>Id000001fc14326200&#45;&gt;IdMethodNameVal000001fc14326200</title>
<path fill="none" stroke="black" d="M511.175,-415.513C511.175,-397.483 511.175,-373.527 511.175,-355.264"/>
<polygon fill="black" stroke="black" points="514.675,-355.257 511.175,-345.257 507.675,-355.257 514.675,-355.257"/>
<text text-anchor="middle" x="526.175" y="-386.447" font-family="Times New Roman,serif" font-size="14.00">name</text>
</g>
<!-- Id000001fc143261e0 -->
<g id="node20" class="node"><title>Id000001fc143261e0</title>
<ellipse fill="none" stroke="black" cx="600.175" cy="-327.17" rx="37.0935" ry="18"/>
<text text-anchor="middle" x="600.175" y="-323.47" font-family="Times New Roman,serif" font-size="14.00">params</text>
</g>
<!-- Id000001fc14326200&#45;&gt;Id000001fc143261e0 -->
<g id="edge17" class="edge"><title>Id000001fc14326200&#45;&gt;Id000001fc143261e0</title>
<path fill="none" stroke="black" d="M530.487,-416.922C545.539,-397.752 566.325,-371.28 581.272,-352.244"/>
<polygon fill="black" stroke="black" points="584.064,-354.356 587.487,-344.329 578.559,-350.033 584.064,-354.356"/>
</g>
<!-- Id000001fc14326170 -->
<g id="node21" class="node"><title>Id000001fc14326170</title>
<ellipse fill="none" stroke="black" cx="600.175" cy="-225.823" rx="27" ry="18"/>
<text text-anchor="middle" x="600.175" y="-222.123" font-family="Times New Roman,serif" font-size="14.00">.</text>
</g>
<!-- Id000001fc143261e0&#45;&gt;Id000001fc14326170 -->
<g id="edge21" class="edge"><title>Id000001fc143261e0&#45;&gt;Id000001fc14326170</title>
<path fill="none" stroke="black" d="M600.175,-308.865C600.175,-293.765 600.175,-271.596 600.175,-254.108"/>
<polygon fill="black" stroke="black" points="603.675,-253.93 600.175,-243.93 596.675,-253.93 603.675,-253.93"/>
</g>
<!-- Id000001fc143260e0 -->
<g id="node22" class="node"><title>Id000001fc143260e0</title>
<ellipse fill="none" stroke="black" cx="596.175" cy="-110.477" rx="67.3507" ry="26.7407"/>
<text text-anchor="middle" x="596.175" y="-114.277" font-family="Times New Roman,serif" font-size="14.00">var or method</text>
<text text-anchor="middle" x="596.175" y="-99.2767" font-family="Times New Roman,serif" font-size="14.00"> localnum = 1</text>
</g>
<!-- Id000001fc14326170&#45;&gt;Id000001fc143260e0 -->
<g id="edge19" class="edge"><title>Id000001fc14326170&#45;&gt;Id000001fc143260e0</title>
<path fill="none" stroke="black" d="M599.568,-207.608C599.009,-191.787 598.164,-167.821 597.456,-147.777"/>
<polygon fill="black" stroke="black" points="600.952,-147.587 597.101,-137.717 593.956,-147.834 600.952,-147.587"/>
<text text-anchor="middle" x="616.675" y="-169.753" font-family="Times New Roman,serif" font-size="14.00">object</text>
</g>
<!-- Id000001fc14326150 -->
<g id="node24" class="node"><title>Id000001fc14326150</title>
<ellipse fill="none" stroke="black" cx="718.175" cy="-110.477" rx="36.2938" ry="18"/>
<text text-anchor="middle" x="718.175" y="-106.777" font-family="Times New Roman,serif" font-size="14.00">upcase</text>
</g>
<!-- Id000001fc14326170&#45;&gt;Id000001fc14326150 -->
<g id="edge20" class="edge"><title>Id000001fc14326170&#45;&gt;Id000001fc14326150</title>
<path fill="none" stroke="black" d="M615.12,-210.468C635.265,-191.117 671.332,-156.473 695.007,-133.731"/>
<polygon fill="black" stroke="black" points="697.436,-136.252 702.223,-126.8 692.586,-131.203 697.436,-136.252"/>
<text text-anchor="middle" x="671.675" y="-169.753" font-family="Times New Roman,serif" font-size="14.00">field</text>
</g>
<!-- IdVal000001fc143260e0 -->
<g id="node23" class="node"><title>IdVal000001fc143260e0</title>
<ellipse fill="none" stroke="black" cx="596.175" cy="-18" rx="27" ry="18"/>
<text text-anchor="middle" x="596.175" y="-14.3" font-family="Times New Roman,serif" font-size="14.00">str</text>
</g>
<!-- Id000001fc143260e0&#45;&gt;IdVal000001fc143260e0 -->
<g id="edge18" class="edge"><title>Id000001fc143260e0&#45;&gt;IdVal000001fc143260e0</title>
<path fill="none" stroke="black" d="M596.175,-83.3071C596.175,-71.7193 596.175,-58.0883 596.175,-46.3654"/>
<polygon fill="black" stroke="black" points="599.675,-46.2492 596.175,-36.2493 592.675,-46.2493 599.675,-46.2492"/>
</g>
</g>
</svg>
